<svg xmlns="http://www.w3.org/2000/svg" viewBox="0 0 512 512">
  <defs>
    <linearGradient id="bg" x1="0" x2="1" y1="0" y2="1">
      <stop offset="0" stop-color="#d8ebe5"/>
      <stop offset="1" stop-color="#f7e5cc"/>
    </linearGradient>
    <linearGradient id="bird" x1="0" x2="1" y1="0" y2="1">
      <stop offset="0" stop-color="#f1a5c1"/>
      <stop offset="1" stop-color="#df7399"/>
    </linearGradient>
  </defs>
  <rect width="512" height="512" rx="112" fill="url(#bg)"/>
  <ellipse cx="256" cy="350" rx="158" ry="54" fill="#9fc3b5" opacity="0.5"/>
  <path d="M220 292c48 0 81 24 81 59s-33 61-81 61-82-27-82-61 34-59 82-59z" fill="url(#bird)" opacity="0.95"/>
  <path d="M258 273c24-54 55-66 85-47 21 13 26 40 9 59-16 19-46 19-62 5" fill="none" stroke="#e88bad" stroke-width="24" stroke-linecap="round"/>
  <circle cx="357" cy="286" r="16" fill="#f3b8cd"/>
  <circle cx="361" cy="281" r="4" fill="#2d2624"/>
  <path d="M372 286l42 6-31 14z" fill="#f2ddb0"/>
  <path d="M390 289l24 3-17 8z" fill="#2d2a2a"/>
</svg>
